<?xml version="1.0" encoding="utf-8"?>
<!-- Generator: Adobe Illustrator 25.4.1, SVG Export Plug-In . SVG Version: 6.00 Build 0)  -->
<svg version="1.1" id="Calque_1" xmlns="http://www.w3.org/2000/svg" xmlns:xlink="http://www.w3.org/1999/xlink" x="0px" y="0px"
	 viewBox="0 0 2184.8 626.7" style="enable-background:new 0 0 2184.8 626.7;" xml:space="preserve">
<style type="text/css">
	.st0{fill:#003D74;}
</style>
<g>
	<path class="st0" d="M351.4,207.9h-68.5c-6.3-39.2-32.3-65.1-85.8-65.1c-47.2,0-77.8,21.3-77.8,57c0,30,22.5,44.4,63.4,52.4
		l49.5,9.8c74.9,15,117.5,44.9,117.5,107.7c0,73.2-60.5,122.1-151.5,122.1C102,491.9,36.9,440.1,30,356h68.5
		c6.9,46.1,44.9,74.9,103.7,74.9c47.8,0,76.6-20.2,76.6-53c0-20.7-13.2-40.9-57.6-48.4l-64.5-12.7c-76-14.4-110.6-53-110.6-111.2
		c0-73.2,58.2-122.1,146.3-122.1C261.5,83.5,342.1,113.5,351.4,207.9z"/>
	<path class="st0" d="M414.7,112.9c0-23.6,18.4-40.9,41.5-40.9s41.5,17.3,41.5,40.9c0,22.5-18.4,39.7-41.5,39.7
		S414.7,135.4,414.7,112.9z M489.6,211.4v272.4h-66.2V211.4H489.6z"/>
	<path class="st0" d="M567.9,112.9c0-23.6,18.4-40.9,41.5-40.9s41.5,17.3,41.5,40.9c0,22.5-18.4,39.7-41.5,39.7
		S567.9,135.4,567.9,112.9z M642.8,211.4v272.4h-66.2V211.4H642.8z"/>
	<path class="st0" d="M721.1,112.9c0-23.6,18.4-40.9,41.5-40.9s41.5,17.3,41.5,40.9c0,22.5-18.4,39.7-41.5,39.7
		S721.1,135.4,721.1,112.9z M796,211.4v272.4h-66.2V211.4H796z"/>
	<path class="st0" d="M1328.3,333.5v150.3h-66.8V337.5c0-47.8-23.6-74.3-65.7-74.3c-20.7,0-43.8,9.8-62.8,37.4
		c2.3,10.4,3.5,21.3,3.5,32.8v150.3h-66.2V337.5c0-47.8-24.2-74.3-65.7-74.3c-19.6,0-40.9,10.9-59.3,36.3v184.3h-66.8V211.4h66.8v19
		c18.4-17.3,38.6-27.6,73.2-27.6c35.7,0,67.4,15,88.7,41.5c28.8-27.6,57.6-41.5,102.5-41.5C1276.4,202.7,1328.3,254.6,1328.3,333.5z
		"/>
	<path class="st0" d="M1689.4,347.9c0,78.9-61.1,142.3-137.1,142.3c-32.8,0-61.1-9.2-82.9-25.3v155.5h-66.8v-409h66.8v19
		c21.9-16.1,50.1-25.3,82.9-25.3C1628.3,205.1,1689.4,268.4,1689.4,347.9z M1623.2,347.9c0-45.5-33.4-85.2-80.6-85.2
		c-28.2,0-54.1,10.4-73.2,38v93.9c19,27.6,44.9,38,73.2,38C1589.7,432.6,1623.2,392.8,1623.2,347.9z"/>
	<path class="st0" d="M1818.4,483.8h-66.8v-409h66.8V483.8z"/>
	<path class="st0" d="M2157.1,365.2h-0.6h-210.8c5.8,38.6,32.3,68.5,81.8,68.5c26.5,0,45.5-8.6,55.3-25.3h70.8
		c-15.6,50.1-65.7,84.1-127.9,84.1c-87,0-145.2-63.9-145.2-144.6c0-83.5,58.2-145.2,143.4-145.2c77.2,0,134.2,56.4,134.8,140.5
		C2158.8,353.1,2158.3,358.3,2157.1,365.2z M1946.9,324.3h144.6c-4.6-40.3-28.8-65.1-67.4-65.1
		C1979.7,259.2,1954.4,286.8,1946.9,324.3z"/>
</g>
<g>
</g>
<g>
</g>
<g>
</g>
<g>
</g>
<g>
</g>
</svg>
